<svg t="1699612293764" class="icon" viewBox="0 0 1024 1024" version="1.1"
  xmlns="http://www.w3.org/2000/svg" p-id="7698" width="128" height="128">
  <path
    d="M102 192.4v639.3c0 49.9 40.5 90.4 90.4 90.4h639.3c49.9 0 90.4-40.5 90.4-90.4V192.4c0-49.9-40.5-90.4-90.4-90.4H192.4c-49.9 0-90.4 40.5-90.4 90.4zM691.8 251c0-15.3 12.4-27.7 27.7-27.7 15.3 0 27.7 12.4 27.7 27.7v203.7c0 15.3-12.4 27.7-27.7 27.7-15.3 0-27.7-12.4-27.7-27.7V251z m-207.5 0c0-15.3 12.4-27.7 27.7-27.7 15.3 0 27.7 12.4 27.7 27.7v133c0 15.3-12.4 27.7-27.7 27.7-15.3 0-27.7-12.4-27.7-27.7V251z m-207.4 0.8c0-15.3 12.4-27.7 27.7-27.7 15.3 0 27.7 12.4 27.7 27.7V311c0 15.3-12.4 27.7-27.7 27.7-15.3 0-27.7-12.4-27.7-27.7v-59.2zM332.2 773c0 15.3-12.4 27.7-27.7 27.7-15.3 0-27.7-12.4-27.7-27.7V568.5c0-15.3 12.4-27.7 27.7-27.7 15.3 0 27.7 12.4 27.7 27.7V773z m-27.7-252.9c-44.5 0-80.7-36.2-80.7-80.7s36.2-80.7 80.7-80.7 80.7 36.2 80.7 80.7c0.1 44.5-36.1 80.7-80.7 80.7z m235.2 252.1c0 15.3-12.4 27.7-27.7 27.7-15.3 0-27.7-12.4-27.7-27.7V644.6c0-15.3 12.4-27.7 27.7-27.7 15.3 0 27.7 12.4 27.7 27.7v127.6zM512 594.4c-44.5 0-80.7-36.2-80.7-80.7S467.5 433 512 433s80.7 36.2 80.7 80.7-36.2 80.7-80.7 80.7z m235.1 177.8c0 15.3-12.4 27.7-27.7 27.7-15.3 0-27.7-12.4-27.7-27.7v-56.9c0-15.3 12.4-27.7 27.7-27.7 15.3 0 27.7 12.4 27.7 27.7v56.9z m-27.6-107.4c-44.5 0-80.7-36.2-80.7-80.7s36.2-80.7 80.7-80.7 80.7 36.2 80.7 80.7-36.2 80.7-80.7 80.7z"
    p-id="7699" fill="#2c2c2c"></path>
</svg>
