<?xml version="1.0" standalone="no"?><!DOCTYPE svg PUBLIC "-//W3C//DTD SVG 1.1//EN" "http://www.w3.org/Graphics/SVG/1.1/DTD/svg11.dtd"><svg t="1651717782613" class="icon" viewBox="0 0 1024 1024" version="1.1" xmlns="http://www.w3.org/2000/svg" p-id="33255" xmlns:xlink="http://www.w3.org/1999/xlink" width="200" height="200"><defs><style type="text/css">@font-face { font-family: feedback-iconfont; src: url("//at.alicdn.com/t/font_1031158_u69w8yhxdu.woff2?t=1630033759944") format("woff2"), url("//at.alicdn.com/t/font_1031158_u69w8yhxdu.woff?t=1630033759944") format("woff"), url("//at.alicdn.com/t/font_1031158_u69w8yhxdu.ttf?t=1630033759944") format("truetype"); }
</style></defs><path d="M299.776 85.333333H42.666667a42.666667 42.666667 0 0 0-42.666667 42.666667v768a42.666667 42.666667 0 0 0 42.666667 42.666667h938.666666a42.666667 42.666667 0 0 0 42.666667-42.666667V238.933333l-0.298667-4.949333a42.666667 42.666667 0 0 0-58.538666-34.56L648.533333 328.96 648.533333 238.933333l-0.256-4.906666a42.666667 42.666667 0 0 0-61.568-33.237334L342.442667 323.413333V128a42.666667 42.666667 0 0 0-42.666667-42.666667z m-42.666667 85.333334v221.866666l0.298667 4.906667a42.666667 42.666667 0 0 0 61.525333 33.237333l244.224-122.624 0.042667 84.48 0.298667 4.949334a42.666667 42.666667 0 0 0 58.538666 34.56L938.666667 302.464V853.333333H85.333333V170.666667h171.776z" p-id="33256"></path><path d="M384 512H213.333333a42.666667 42.666667 0 0 0-42.666666 42.666667v170.666666a42.666667 42.666667 0 0 0 42.666666 42.666667h170.666667a42.666667 42.666667 0 0 0 42.666667-42.666667v-170.666666a42.666667 42.666667 0 0 0-42.666667-42.666667z m-42.666667 85.333333v85.333334H256v-85.333334h85.333333zM810.666667 512h-170.666667a42.666667 42.666667 0 0 0-42.666667 42.666667v170.666666a42.666667 42.666667 0 0 0 42.666667 42.666667h170.666667a42.666667 42.666667 0 0 0 42.666666-42.666667v-170.666666a42.666667 42.666667 0 0 0-42.666666-42.666667z m-42.666667 85.333333v85.333334h-85.333333v-85.333334h85.333333z" p-id="33257"></path></svg>